<svg width="43" height="30" viewBox="0 0 43 30" fill="none" xmlns="http://www.w3.org/2000/svg">
<path d="M33.0403 13.0162V0H36.2487V13.0162H33.0403ZM39.2945 13.0162L36.6283 9.01659L38.8155 6.85893L43 13.0162H39.2945ZM36.0047 10.3059L35.9685 6.99926H36.3662L39.1951 3.3593H42.7741L38.6076 8.23597L37.2429 8.8938L36.0047 10.3059Z" fill="white"/>
<path d="M24.3285 13.0162V3.3593H27.5369V4.9907H27.6544C27.793 4.41766 28.0611 3.97327 28.4588 3.65751C28.8625 3.34175 29.3686 3.18388 29.9772 3.18388C30.1519 3.18388 30.3206 3.19557 30.4833 3.21896C30.646 3.24235 30.7966 3.27743 30.9352 3.32421V5.97305C30.7604 5.92043 30.5737 5.8795 30.3748 5.85026C30.176 5.81518 29.9711 5.79764 29.7603 5.79764C29.2843 5.79764 28.8806 5.8795 28.5492 6.04322C28.2178 6.20695 27.9647 6.44669 27.79 6.76245C27.6213 7.07235 27.5369 7.45243 27.5369 7.90268V13.0162H24.3285Z" fill="white"/>
<path d="M17.1893 13.2267C16.1469 13.2267 15.2492 13.0249 14.496 12.6215C13.7429 12.218 13.1644 11.6391 12.7607 10.8848C12.3571 10.1305 12.1552 9.23587 12.1552 8.20089V8.19212C12.1552 7.15129 12.354 6.25373 12.7517 5.49942C13.1554 4.74511 13.7248 4.16623 14.4599 3.76276C15.201 3.35345 16.0746 3.14879 17.0808 3.14879C18.081 3.14879 18.9487 3.35052 19.6838 3.75399C20.4188 4.15161 20.9852 4.71295 21.3829 5.43802C21.7866 6.16309 21.9884 7.01388 21.9884 7.99039V8.8938H13.7278V7.06943H20.4791L18.9878 8.79732V7.57815C18.9878 7.10452 18.9095 6.70397 18.7529 6.37652C18.6022 6.04322 18.3883 5.79179 18.1112 5.62221C17.84 5.44679 17.5207 5.35909 17.1532 5.35909C16.7856 5.35909 16.4633 5.44679 16.1861 5.62221C15.9089 5.79179 15.692 6.04322 15.5354 6.37652C15.3787 6.70982 15.3004 7.11036 15.3004 7.57815V8.81486C15.3004 9.2768 15.3787 9.67442 15.5354 10.0077C15.692 10.3352 15.915 10.5866 16.2042 10.762C16.4994 10.9316 16.8489 11.0164 17.2526 11.0164C17.602 11.0164 17.8973 10.9638 18.1383 10.8585C18.3793 10.7533 18.5691 10.6305 18.7077 10.4901C18.8523 10.3439 18.9487 10.2153 18.9969 10.1042L19.0149 10.0691H21.9251L21.898 10.1744C21.8257 10.4843 21.6871 10.8176 21.4823 11.1743C21.2835 11.5251 20.9973 11.8584 20.6237 12.1742C20.2561 12.4841 19.7892 12.7384 19.2228 12.9372C18.6625 13.1302 17.9846 13.2267 17.1893 13.2267Z" fill="white"/>
<path d="M1.66297 9.31481V6.87647H4.79007C5.489 6.87647 6.03428 6.70397 6.42592 6.35898C6.82359 6.01399 7.02242 5.51404 7.02242 4.85914V4.8416C7.02242 4.18085 6.82359 3.6809 6.42592 3.34175C6.03428 3.00261 5.489 2.83303 4.79007 2.83303H1.66297V0.359611H5.5854C6.55547 0.359611 7.399 0.546726 8.116 0.920956C8.83301 1.28934 9.38733 1.80975 9.77897 2.48219C10.1766 3.14879 10.3755 3.93526 10.3755 4.8416V4.85914C10.3755 5.75963 10.1766 6.54609 9.77897 7.21854C9.38733 7.88514 8.83301 8.40262 8.116 8.77101C7.399 9.13354 6.55547 9.31481 5.5854 9.31481H1.66297ZM0 13.0162V0.359611H3.3169V13.0162H0Z" fill="white"/>
<path d="M33.4929 29.965C33.0169 29.965 32.5831 29.8978 32.1914 29.7633C31.8058 29.623 31.4714 29.4242 31.1882 29.1669C30.905 28.9037 30.6851 28.5909 30.5285 28.2284H30.411V29.7896H27.2025V16.7734H30.411V21.7729H30.5285C30.6911 21.3928 30.9141 21.0683 31.1973 20.7993C31.4865 20.5304 31.8239 20.3228 32.2095 20.1766C32.5951 20.0304 33.0199 19.9573 33.4838 19.9573C34.3214 19.9573 35.0354 20.1532 35.6258 20.545C36.2163 20.9367 36.6682 21.5069 36.9815 22.2553C37.2948 22.9979 37.4515 23.8984 37.4515 24.9568V24.9656C37.4515 26.0181 37.2918 26.9186 36.9725 27.667C36.6591 28.4096 36.2073 28.9798 35.6168 29.3774C35.0263 29.7691 34.3183 29.965 33.4929 29.965ZM32.2999 27.4302C32.6915 27.4302 33.0289 27.3308 33.3121 27.132C33.5953 26.9332 33.8122 26.6496 33.9629 26.2812C34.1195 25.9128 34.1978 25.4743 34.1978 24.9656V24.9568C34.1978 24.4481 34.1195 24.0095 33.9629 23.6411C33.8062 23.2728 33.5863 22.9892 33.3031 22.7903C33.0199 22.5915 32.6855 22.4921 32.2999 22.4921C31.9203 22.4921 31.5859 22.5915 31.2967 22.7903C31.0135 22.9892 30.7936 23.2728 30.6369 23.6411C30.4803 24.0095 30.4019 24.451 30.4019 24.9656V24.9743C30.4019 25.483 30.4803 25.9216 30.6369 26.29C30.7936 26.6584 31.0135 26.942 31.2967 27.1408C31.5859 27.3337 31.9203 27.4302 32.2999 27.4302Z" fill="#FFE605"/>
<path d="M18.1383 30.0001C17.4092 30.0001 16.7916 29.8569 16.2855 29.5703C15.7854 29.2838 15.4058 28.8687 15.1467 28.3249C14.8877 27.781 14.7581 27.1261 14.7581 26.3601V20.1327H17.9666V25.676C17.9666 26.249 18.0931 26.6905 18.3461 27.0004C18.6052 27.3103 18.9999 27.4653 19.5301 27.4653C19.7892 27.4653 20.0212 27.4214 20.226 27.3337C20.4369 27.246 20.6146 27.1203 20.7593 26.9566C20.9039 26.7928 21.0123 26.5999 21.0846 26.3777C21.1569 26.1555 21.1931 25.907 21.1931 25.6322V20.1327H24.4015V29.7896H21.1931V28.1845H21.0756C20.9249 28.5587 20.7111 28.8833 20.4339 29.1581C20.1628 29.4329 19.8344 29.6434 19.4488 29.7896C19.0631 29.9299 18.6263 30.0001 18.1383 30.0001Z" fill="#FFE605"/>
<path d="M0 29.7896V17.133H3.3169V22.0974H8.50463V17.133H11.8306V29.7896H8.50463V24.6937H3.3169V29.7896H0Z" fill="#FFE605"/>
</svg>
